<?xml version="1.0" encoding="iso-8859-1"?>
<!-- Generator: Adobe Illustrator 18.0.0, SVG Export Plug-In . SVG Version: 6.00 Build 0)  -->
<!DOCTYPE svg PUBLIC "-//W3C//DTD SVG 1.1//EN" "http://www.w3.org/Graphics/SVG/1.1/DTD/svg11.dtd">
<svg version="1.1" id="Capa_1" xmlns="http://www.w3.org/2000/svg" xmlns:xlink="http://www.w3.org/1999/xlink" x="0px" y="0px"
	 viewBox="0 0 182.624 182.624" style="enable-background:new 0 0 182.624 182.624;" xml:space="preserve">
<g>
	<path d="M178.431,139.596c-9.825-4.301-20.805-4.701-30.756-1.564c0.842-5.63,1.155-11.355,0.901-17.106
		c7.904-7.156,14.331-15.598,19.107-25.164c0.983-1.969,0.983-4.285,0-6.254c-6.219-12.455-15.128-22.886-25.823-30.759
		c9.969-4.972,16.837-15.27,16.837-27.146c0-16.718-13.601-30.318-30.319-30.318S98.061,14.885,98.061,31.603
		c0,3.914,0.754,7.652,2.11,11.09c-2.92-0.299-5.875-0.454-8.858-0.454c-2.983,0-5.938,0.155-8.858,0.454
		c1.356-3.438,2.11-7.176,2.11-11.09c0-16.718-13.601-30.318-30.319-30.318S23.927,14.885,23.927,31.603
		c0,11.876,6.868,22.174,16.837,27.146C30.068,66.623,21.159,77.053,14.94,89.508c-0.983,1.969-0.983,4.285,0,6.254
		c4.865,9.744,11.38,18.247,19.104,25.26c-0.246,5.719,0.067,11.411,0.904,17.01c-9.951-3.137-20.931-2.738-30.755,1.564
		c-3.13,1.37-4.813,4.8-3.982,8.113c1.845,7.361,5.569,14.096,10.787,19.63h-0.183c-3.866,0-7,3.134-7,7s3.134,7,7,7h46.695
		c2.652,0,5.077-1.499,6.262-3.872c1.185-2.372,0.928-5.211-0.665-7.332c-4.762-6.341-8.445-13.319-10.992-20.665
		c-0.056-0.172-0.116-0.342-0.185-0.509c-1.917-5.66-3.142-11.538-3.669-17.51c12.782,7.46,27.542,11.581,43.052,11.581
		c15.193,0,30.071-4.094,43.06-11.685c-0.522,6.013-1.751,11.931-3.682,17.628c-0.062,0.151-0.116,0.305-0.167,0.459
		c-2.547,7.359-6.235,14.35-11.005,20.701c-1.593,2.121-1.85,4.96-0.665,7.332c1.186,2.373,3.61,3.872,6.262,3.872h44.121
		c3.866,0,7-3.134,7-7c0-3.14-2.067-5.797-4.915-6.684c5.378-5.593,9.213-12.443,11.093-19.946
		C183.244,144.396,181.561,140.966,178.431,139.596z M128.379,15.285c8.998,0,16.319,7.32,16.319,16.318
		s-7.321,16.319-16.319,16.319s-16.318-7.321-16.318-16.319S119.381,15.285,128.379,15.285z M54.245,15.285
		c8.998,0,16.319,7.32,16.319,16.318s-7.321,16.319-16.319,16.319s-16.318-7.321-16.318-16.319S45.247,15.285,54.245,15.285z
		 M39.92,167.153c-6.685-0.746-12.803-3.626-17.692-8.331c-2.53-2.434-4.604-5.257-6.15-8.344c8.144-1.558,16.734,0.35,23.445,5.371
		c1.459,3.935,3.193,7.777,5.204,11.491h-3.834C40.577,167.258,40.254,167.19,39.92,167.153z M166.546,150.478
		c-1.546,3.087-3.62,5.91-6.149,8.344c-5.615,5.402-12.963,8.426-20.692,8.515c-0.016,0-0.031,0.003-0.047,0.003h-1.76
		c2.01-3.714,3.744-7.555,5.203-11.49C149.813,150.827,158.404,148.921,166.546,150.478z M138.178,73.744H44.444
		c12.733-11.128,29.221-17.505,46.868-17.505C108.958,56.239,125.445,62.616,138.178,73.744z M46.283,113.079
		c-0.364-0.378-0.767-0.72-1.21-1.01c-6.314-5.389-11.737-11.926-15.95-19.433c0.944-1.682,1.955-3.309,3.016-4.892h118.347
		c1.061,1.583,2.072,3.209,3.016,4.891c-4.272,7.604-9.848,14.294-16.61,19.924c-12.762,10.623-28.948,16.474-45.579,16.474
		C74.502,129.032,58.746,123.245,46.283,113.079z"/>
	<circle cx="128.379" cy="31.603" r="7.044"/>
	<circle cx="54.245" cy="31.603" r="7.043"/>
	<path d="M91.312,151.319c-3.866,0-7,3.134-7,7v16.021c0,3.866,3.134,7,7,7s7-3.134,7-7v-16.021
		C98.312,154.453,95.178,151.319,91.312,151.319z"/>
</g>
<g>
</g>
<g>
</g>
<g>
</g>
<g>
</g>
<g>
</g>
<g>
</g>
<g>
</g>
<g>
</g>
<g>
</g>
<g>
</g>
<g>
</g>
<g>
</g>
<g>
</g>
<g>
</g>
<g>
</g>
</svg>
